<svg width="115" height="115" viewBox="0 0 115 115" fill="none" xmlns="http://www.w3.org/2000/svg">
<rect x="38.0753" y="7.42001" width="12" height="107" fill="black"/>
<rect x="38.5826" y="6.32001" width="12" height="43.5596" transform="rotate(62.3432 38.5826 6.32001)" fill="black"/>
<rect x="38.5853" y="27.32" width="12" height="43.5596" transform="rotate(62.34 38.5853 27.32)" fill="black"/>
<rect x="38.5853" y="50.32" width="12" height="43.5596" transform="rotate(62.34 38.5853 50.32)" fill="black"/>
<rect x="64.0753" y="6.42004" width="12" height="108" fill="black"/>
<rect x="70.4929" y="16.9477" width="12" height="43.5596" transform="rotate(-62.34 70.4929 16.9477)" fill="black"/>
<rect x="70.4953" y="37.9486" width="12" height="43.5596" transform="rotate(-62.34 70.4953 37.9486)" fill="black"/>
<rect x="70.4953" y="60.9486" width="12" height="43.5596" transform="rotate(-62.34 70.4953 60.9486)" fill="black"/>
<path fill-rule="evenodd" clip-rule="evenodd" d="M64.0753 13.5483L70.7039 17.0225L76.2746 6.39392L64.0753 0V13.5483Z" fill="black"/>
<path fill-rule="evenodd" clip-rule="evenodd" d="M50.0753 13.7383L43.5549 17.2125L38.0753 6.58392L50.0753 0.190002V13.7383Z" fill="black"/>
</svg>
